<svg xmlns="http://www.w3.org/2000/svg"  viewBox="0 0 120 120" width="120px" height="120px" baseProfile="basic"><path d="M16,21v28l5,5v6l-5,4v7l4,4v8l-4,6.078V91l4,5v2l-4,4v4h30.137L48,103h2l4,5h7c0,0,4.977-2,4.988-2 s10.043,0,10.043,0L78,103h2l5,5h9v-5.992h2l6,4.992h2V72l-4-3v-9l-3-2l7-7V40l-4-6v-3l4-3.065V22H92l-2,3h-2v-5H75l-3,4h-3l-2-4 H51l-3,4h-7l-2-3H16z" opacity=".35"/><path fill="#ff1200" d="M16,17v28l5,5v6l-5,4v7l4,4v8l-4,6.078V87l4,5v2l-4,5v3h30.137L48,99h2l4,5h7c0,0,4.977-2,4.988-2 s10.043,0,10.043,0L78,99h2l5,5h9v-5.992h2l6,4.992h2V68l-4-3v-9l-3-2l7-7V36l-4-6v-3l4-3.065V18H92l-2,3h-2v-5H75l-3,4h-3l-2-4H51 l-3,4h-7l-2-3H16z"/><polygon points="30,38 38,36 90,75 84,88 74,88" opacity=".35"/><polygon points="35,69 51,86 40,91 31,84" opacity=".35"/><polygon points="67,40 78.979,36 85.469,41 83.469,53" opacity=".35"/><polygon fill="#fff" points="30,35 38,33 90,72 84,85 74,85"/><polygon fill="#fff" points="35,66 51,83 40,88 31,81"/><polygon fill="#fff" points="67,37 78.979,33 86,38 84,50"/></svg>